<svg width="24" height="24" viewBox="0 0 24 24" fill="none" xmlns="http://www.w3.org/2000/svg">
<g clip-path="url(#clip0_2_623)">
<path d="M12.004 5.83789C8.60101 5.83789 5.84601 8.59589 5.84601 11.9959C5.84601 15.3989 8.60401 18.1539 12.004 18.1539C15.407 18.1539 18.162 15.3959 18.162 11.9959C18.162 8.59289 15.404 5.83789 12.004 5.83789ZM12.004 15.9929C9.79501 15.9929 8.00701 14.2039 8.00701 11.9959C8.00701 9.78789 9.79601 7.99889 12.004 7.99889C14.212 7.99889 16.001 9.78789 16.001 11.9959C16.002 14.2039 14.213 15.9929 12.004 15.9929Z" fill="white"/>
<path d="M16.948 0.0763632C14.74 -0.0266368 9.27098 -0.0216368 7.06098 0.0763632C5.11898 0.167363 3.40598 0.636363 2.02498 2.01736C-0.283017 4.32536 0.0119831 7.43536 0.0119831 11.9964C0.0119831 16.6644 -0.248017 19.7024 2.02498 21.9754C4.34198 24.2914 7.49698 23.9884 12.004 23.9884C16.628 23.9884 18.224 23.9914 19.859 23.3584C22.082 22.4954 23.76 20.5084 23.924 16.9394C24.028 14.7304 24.022 9.26236 23.924 7.05236C23.726 2.83936 21.465 0.284363 16.948 0.0763632ZM20.443 20.4484C18.93 21.9614 16.831 21.8264 11.975 21.8264C6.97498 21.8264 4.96998 21.9004 3.50698 20.4334C1.82198 18.7564 2.12698 16.0634 2.12698 11.9804C2.12698 6.45536 1.55998 2.47636 7.10498 2.19236C8.37898 2.14736 8.75398 2.13236 11.961 2.13236L12.006 2.16236C17.335 2.16236 21.516 1.60436 21.767 7.14836C21.824 8.41336 21.837 8.79336 21.837 11.9954C21.836 16.9374 21.93 18.9544 20.443 20.4484Z" fill="white"/>
<path d="M18.406 7.03425C19.2007 7.03425 19.845 6.38999 19.845 5.59525C19.845 4.80051 19.2007 4.15625 18.406 4.15625C17.6112 4.15625 16.967 4.80051 16.967 5.59525C16.967 6.38999 17.6112 7.03425 18.406 7.03425Z" fill="white"/>
</g>
<defs>
<clipPath id="clip0_2_623">
<rect width="24" height="24" fill="white"/>
</clipPath>
</defs>
</svg>
