<svg width="39" height="39" viewBox="0 0 39 39" fill="none" xmlns="http://www.w3.org/2000/svg">
<rect width="39" height="39" fill="#6E2F1B"/>
<mask id="mask0_90_73" style="mask-type:alpha" maskUnits="userSpaceOnUse" x="8" y="8" width="24" height="24">
<rect x="8" y="8" width="24" height="24" fill="#D9D9D9"/>
</mask>
<g mask="url(#mask0_90_73)">
<path d="M20 30C18.6333 30 17.3417 29.7375 16.125 29.2125C14.9083 28.6875 13.8458 27.9708 12.9375 27.0625C12.0292 26.1542 11.3125 25.0917 10.7875 23.875C10.2625 22.6583 10 21.3667 10 20C10 18.6167 10.2625 17.3208 10.7875 16.1125C11.3125 14.9042 12.0292 13.8458 12.9375 12.9375C13.8458 12.0292 14.9083 11.3125 16.125 10.7875C17.3417 10.2625 18.6333 10 20 10C21.3833 10 22.6792 10.2625 23.8875 10.7875C25.0958 11.3125 26.1542 12.0292 27.0625 12.9375C27.9708 13.8458 28.6875 14.9042 29.2125 16.1125C29.7375 17.3208 30 18.6167 30 20C30 21.3667 29.7375 22.6583 29.2125 23.875C28.6875 25.0917 27.9708 26.1542 27.0625 27.0625C26.1542 27.9708 25.0958 28.6875 23.8875 29.2125C22.6792 29.7375 21.3833 30 20 30ZM20 27.95C20.4333 27.35 20.8083 26.725 21.125 26.075C21.4417 25.425 21.7 24.7333 21.9 24H18.1C18.3 24.7333 18.5583 25.425 18.875 26.075C19.1917 26.725 19.5667 27.35 20 27.95ZM17.4 27.55C17.1 27 16.8375 26.4292 16.6125 25.8375C16.3875 25.2458 16.2 24.6333 16.05 24H13.1C13.5833 24.8333 14.1875 25.5583 14.9125 26.175C15.6375 26.7917 16.4667 27.25 17.4 27.55ZM22.6 27.55C23.5333 27.25 24.3625 26.7917 25.0875 26.175C25.8125 25.5583 26.4167 24.8333 26.9 24H23.95C23.8 24.6333 23.6125 25.2458 23.3875 25.8375C23.1625 26.4292 22.9 27 22.6 27.55ZM12.25 22H15.65C15.6 21.6667 15.5625 21.3375 15.5375 21.0125C15.5125 20.6875 15.5 20.35 15.5 20C15.5 19.65 15.5125 19.3125 15.5375 18.9875C15.5625 18.6625 15.6 18.3333 15.65 18H12.25C12.1667 18.3333 12.1042 18.6625 12.0625 18.9875C12.0208 19.3125 12 19.65 12 20C12 20.35 12.0208 20.6875 12.0625 21.0125C12.1042 21.3375 12.1667 21.6667 12.25 22ZM17.65 22H22.35C22.4 21.6667 22.4375 21.3375 22.4625 21.0125C22.4875 20.6875 22.5 20.35 22.5 20C22.5 19.65 22.4875 19.3125 22.4625 18.9875C22.4375 18.6625 22.4 18.3333 22.35 18H17.65C17.6 18.3333 17.5625 18.6625 17.5375 18.9875C17.5125 19.3125 17.5 19.65 17.5 20C17.5 20.35 17.5125 20.6875 17.5375 21.0125C17.5625 21.3375 17.6 21.6667 17.65 22ZM24.35 22H27.75C27.8333 21.6667 27.8958 21.3375 27.9375 21.0125C27.9792 20.6875 28 20.35 28 20C28 19.65 27.9792 19.3125 27.9375 18.9875C27.8958 18.6625 27.8333 18.3333 27.75 18H24.35C24.4 18.3333 24.4375 18.6625 24.4625 18.9875C24.4875 19.3125 24.5 19.65 24.5 20C24.5 20.35 24.4875 20.6875 24.4625 21.0125C24.4375 21.3375 24.4 21.6667 24.35 22ZM23.95 16H26.9C26.4167 15.1667 25.8125 14.4417 25.0875 13.825C24.3625 13.2083 23.5333 12.75 22.6 12.45C22.9 13 23.1625 13.5708 23.3875 14.1625C23.6125 14.7542 23.8 15.3667 23.95 16ZM18.1 16H21.9C21.7 15.2667 21.4417 14.575 21.125 13.925C20.8083 13.275 20.4333 12.65 20 12.05C19.5667 12.65 19.1917 13.275 18.875 13.925C18.5583 14.575 18.3 15.2667 18.1 16ZM13.1 16H16.05C16.2 15.3667 16.3875 14.7542 16.6125 14.1625C16.8375 13.5708 17.1 13 17.4 12.45C16.4667 12.75 15.6375 13.2083 14.9125 13.825C14.1875 14.4417 13.5833 15.1667 13.1 16Z" fill="white"/>
</g>
</svg>
